<?xml version="1.0" encoding="UTF-8"?>
<svg width="752pt" height="752pt" version="1.1" viewBox="0 0 752 752" xmlns="http://www.w3.org/2000/svg">
 <g fill="#9b9b9b">
  <path d="m584.38 217.35h-49.727v-49.727c0-0.62891-0.25-1.2305-0.69531-1.6758-0.44141-0.44141-1.0469-0.69141-1.6758-0.69141h-364.66c-0.62891 0-1.2305 0.25-1.6758 0.69141-0.44141 0.44531-0.69141 1.0469-0.69141 1.6758v364.66c0 0.62891 0.25 1.2344 0.69141 1.6758 0.44531 0.44531 1.0469 0.69531 1.6758 0.69531h49.727v49.727c0 0.625 0.25 1.2305 0.69531 1.6719 0.44141 0.44531 1.043 0.69531 1.6719 0.69531h364.66c0.625 0 1.2305-0.25 1.6719-0.69531 0.44531-0.44141 0.69531-1.0469 0.69531-1.6719v-364.66c0-0.62891-0.25-1.2305-0.69531-1.6719-0.44141-0.44531-1.0469-0.69531-1.6719-0.69531zm-414.39 312.56v-359.92h359.92v47.359h-15.961v-28.984c0.003906-0.62891-0.24609-1.2305-0.69141-1.6758-0.44531-0.44141-1.0469-0.69141-1.6758-0.69141h-323.22c-0.62891 0-1.2305 0.25-1.6758 0.69141-0.44141 0.44531-0.69141 1.0469-0.69141 1.6758v290.02c0 0.62891 0.25 1.2305 0.69141 1.6758 0.44531 0.44141 1.0469 0.69141 1.6758 0.69141h28.984v49.156zm49.727-312.56c-0.62891 0-1.2305 0.25-1.6719 0.69531-0.44531 0.44141-0.69531 1.043-0.69531 1.6719v256.3h-26.617v-285.29h318.48v26.617zm362.29 364.66h-359.92v-359.92h359.92z"/>
  <path d="m238.07 240.44v290.07c0 0.62891 0.25 1.2305 0.69531 1.6758 0.44141 0.44141 1.0469 0.69141 1.6719 0.69141h323.22c0.62891 0 1.2305-0.25 1.6758-0.69141 0.44531-0.44531 0.69531-1.0469 0.69531-1.6758v-290.07c0-0.625-0.25-1.2305-0.69531-1.6719-0.44531-0.44531-1.0469-0.69531-1.6758-0.69531h-323.22c-0.625 0-1.2305 0.25-1.6719 0.69531-0.44531 0.44141-0.69531 1.0469-0.69531 1.6719zm4.7344 229.35 97.086-97.086 80.906 80.91-74.551 74.531h-103.44zm110.14 58.355 123.24-123.2 85.109 85.113v38.09zm208.35-285.33v240.54l-83.434-83.434c-0.44531-0.44531-1.0469-0.69531-1.6758-0.69531-0.62891 0-1.2305 0.25-1.6758 0.69531l-50.355 50.34-82.582-82.578c-0.44531-0.44141-1.0469-0.69141-1.6758-0.69141s-1.2305 0.25-1.6758 0.69141l-95.406 95.41v-220.28z"/>
  <path d="m480.78 367.12c11.617 0 22.762-4.6133 30.977-12.828 8.2148-8.2188 12.828-19.359 12.828-30.977 0-11.617-4.6133-22.762-12.828-30.977-8.2148-8.2148-19.359-12.832-30.977-12.832s-22.762 4.6172-30.977 12.832c-8.2148 8.2148-12.828 19.359-12.828 30.977 0.011719 11.613 4.6289 22.75 12.844 30.961 8.2109 8.2109 19.348 12.832 30.961 12.844zm0-82.875c10.363 0 20.301 4.1172 27.625 11.441 7.3281 7.3281 11.445 17.266 11.445 27.629 0 10.359-4.1172 20.301-11.445 27.625-7.3242 7.3281-17.262 11.445-27.625 11.445s-20.301-4.1172-27.629-11.445c-7.3242-7.3242-11.441-17.266-11.441-27.625 0.011718-10.359 4.1328-20.289 11.457-27.613s17.254-11.445 27.613-11.457z"/>
 </g>
</svg>
